<svg width="130" height="90" viewBox="0 0 143 90" fill="none" xmlns="http://www.w3.org/2000/svg">
<g id="Vector">
<path d="M78.5277 0C81.794 0 84.6859 1.94722 86.46 4.9383C86.708 4.91233 86.9591 4.89908 87.2127 4.89908C90.3431 4.89908 93.0853 6.91845 94.6049 9.94347C95.0134 9.84798 95.4352 9.79798 95.8666 9.79798C99.5326 9.79798 102.504 13.4086 102.504 17.8625C102.504 22.3164 99.5326 25.927 95.8666 25.9271L67.2061 25.9272C62.5808 25.9272 58.8313 21.3717 58.8313 15.7523C58.8313 10.1329 62.5808 5.5774 67.2061 5.5774C68.1736 5.5774 69.1028 5.77673 69.9674 6.14344C71.6311 2.48084 74.8409 0 78.5277 0Z" fill="#DADEE5"/>
<path d="M44.4648 72.9804H34.2207L34.1866 72.9805L34.1526 72.9804H10.3859L10.3174 72.9807C4.79913 72.9807 0.325684 67.5458 0.325684 60.8414C0.325684 54.137 4.79913 48.7021 10.3174 48.7021C11.4717 48.7021 12.5802 48.9399 13.6116 49.3773C15.5965 45.0075 19.4261 42.0476 23.8247 42.0476C27.7216 42.0476 31.1719 44.3708 33.2885 47.9394C33.5845 47.9084 33.884 47.8926 34.1866 47.8926C37.9215 47.8926 41.1932 50.3019 43.0062 53.9111C43.4934 53.7972 43.9966 53.7375 44.5113 53.7375C48.885 53.7375 52.4306 58.0452 52.4306 63.3591C52.4306 68.6729 48.885 72.9806 44.5113 72.9806C44.4958 72.9806 44.4803 72.9805 44.4648 72.9804Z" fill="#DADEE5"/>
<path d="M133.844 89.9997H122.936L122.901 89.9998L122.865 89.9997H97.5595L97.4865 90C91.611 90 86.848 84.2132 86.848 77.0749C86.848 69.9366 91.611 64.1498 97.4865 64.1498C98.7155 64.1498 99.8957 64.403 100.994 64.8688C103.107 60.2161 107.185 57.0646 111.868 57.0646C116.017 57.0646 119.691 59.5382 121.944 63.3378C122.26 63.3048 122.579 63.2879 122.901 63.2879C126.877 63.2879 130.361 65.8532 132.291 69.696C132.81 69.5747 133.346 69.5112 133.894 69.5112C138.551 69.5112 142.326 74.0978 142.326 79.7556C142.326 85.4133 138.551 89.9999 133.894 89.9999C133.877 89.9999 133.861 89.9998 133.844 89.9997Z" fill="#DADEE5"/>
</g>
</svg>
