<svg width="96" height="96" viewBox="0 0 96 96" fill="none" xmlns="http://www.w3.org/2000/svg">
<g id="Vector">
<path d="M96 48C96 74.5097 74.5097 96 48 96C21.4903 96 0 74.5097 0 48C0 21.4903 21.4903 0 48 0C74.5097 0 96 21.4903 96 48Z" fill="#D9D9D9"/>
<path d="M26.5645 34.4439C24.4866 40.1527 23.6561 42.4345 18.5736 43.2415C13.3838 41.3525 10.8611 35.1934 12.9389 29.4846C15.8864 25.7723 20.9083 20.6793 26.0981 22.5682C31.2878 24.4572 28.6423 28.7352 26.5645 34.4439Z" fill="#929292"/>
<path d="M77 24.0002C83 26.0002 86.0241 28.9568 85 34C81.4132 38.1996 73.5 31.2265 66.3644 31.2265C63 31.2265 57.9132 20.1998 61.5 16.0002C65.0868 11.8006 72.3805 20.0547 77 24.0002Z" fill="#929292"/>
<path d="M54.8049 72.4338C60.805 74.4337 61.5245 77.9565 60.5002 82.9999C56.9132 87.1998 38.6358 79.7834 31.5001 79.7836C27.0001 74.7833 35.5005 73.7837 35.5003 67.7836C39.0873 63.5837 49.0002 74.9999 54.8049 72.4338Z" fill="#929292"/>
</g>
</svg>
