<svg width="121" height="89" viewBox="0 0 121 90" fill="none" xmlns="http://www.w3.org/2000/svg">
<g id="Vector">
<path d="M17 22C17 22.8284 16.3284 23.5 15.5 23.5C14.6716 23.5 14 22.8284 14 22C14 21.1716 14.6716 20.5 15.5 20.5C16.3284 20.5 17 21.1716 17 22Z" fill="#D9D9D9"/>
<path d="M3 58C3 58.8284 2.32843 59.5 1.5 59.5C0.671573 59.5 0 58.8284 0 58C0 57.1716 0.671573 56.5 1.5 56.5C2.32843 56.5 3 57.1716 3 58Z" fill="#D9D9D9"/>
<path d="M60 49.5C60 50.6046 59.1046 51.5 58 51.5C56.8954 51.5 56 50.6046 56 49.5C56 48.3954 56.8954 47.5 58 47.5C59.1046 47.5 60 48.3954 60 49.5Z" fill="#D9D9D9"/>
<path d="M86 88C86 88.8284 85.3284 89.5 84.5 89.5C83.6716 89.5 83 88.8284 83 88C83 87.1716 83.6716 86.5 84.5 86.5C85.3284 86.5 86 87.1716 86 88Z" fill="#D9D9D9"/>
<path d="M121 77C121 77.8284 120.328 78.5 119.5 78.5C118.672 78.5 118 77.8284 118 77C118 76.1716 118.672 75.5 119.5 75.5C120.328 75.5 121 76.1716 121 77Z" fill="#D9D9D9"/>
<path d="M110 30C110 30.8284 109.328 31.5 108.5 31.5C107.672 31.5 107 30.8284 107 30C107 29.1716 107.672 28.5 108.5 28.5C109.328 28.5 110 29.1716 110 30Z" fill="#D9D9D9"/>
<path d="M77 10C77 10.8284 76.3284 11.5 75.5 11.5C74.6716 11.5 74 10.8284 74 10C74 9.17157 74.6716 8.5 75.5 8.5C76.3284 8.5 77 9.17157 77 10Z" fill="#D9D9D9"/>
<path d="M31 2.5C31 3.60457 30.1046 4.5 29 4.5C27.8954 4.5 27 3.60457 27 2.5C27 1.39543 27.8954 0.5 29 0.5C30.1046 0.5 31 1.39543 31 2.5Z" fill="#D9D9D9"/>
<path d="M20 80.5C20 81.6046 19.1046 82.5 18 82.5C16.8954 82.5 16 81.6046 16 80.5C16 79.3954 16.8954 78.5 18 78.5C19.1046 78.5 20 79.3954 20 80.5Z" fill="#D9D9D9"/>
</g>
</svg>
